<svg width="727" height="144" viewBox="0 0 727 144" fill="none" xmlns="http://www.w3.org/2000/svg">
<path fill-rule="evenodd" clip-rule="evenodd" d="M111.324 33.7185C111.324 52.3425 96.217 67.4408 77.5805 67.4408C58.9433 67.4408 43.8359 52.3425 43.8359 33.7185C43.8359 15.0982 58.9433 0 77.5805 0C96.217 0 111.324 15.0982 111.324 33.7185ZM33.7446 75.8715C15.1081 75.8715 0 90.9652 0 109.589C0 128.212 15.1081 143.309 33.7446 143.309C52.3818 143.309 67.4907 128.212 67.4907 109.589C67.4907 90.9652 52.3818 75.8715 33.7446 75.8715ZM121.416 75.8685C102.779 75.8685 87.6711 90.9652 87.6711 109.589C87.6711 128.212 102.779 143.309 121.416 143.309C140.052 143.309 155.16 128.212 155.16 109.589C155.16 90.9652 140.052 75.8685 121.416 75.8685Z" fill="black"/>
<path fill-rule="evenodd" clip-rule="evenodd" d="M273.899 109.19C274.339 114.192 278.343 120.56 285.28 120.56H289.339C290.912 120.56 292.202 119.271 292.202 117.697V28.4961H292.184C292.102 26.9933 290.86 25.7897 289.339 25.7897H276.762C275.241 25.7897 273.998 26.9933 273.914 28.4961H273.899V35.7442C266.193 26.2526 254.043 22.313 241.86 22.313C214.167 22.313 191.717 44.7631 191.717 72.4584C191.717 100.155 214.167 122.606 241.86 122.606V122.608C254.043 122.608 267.321 117.882 273.897 109.179L273.899 109.19ZM241.909 105.056C224.296 105.056 210.018 90.4626 210.018 72.4584C210.018 54.4572 224.296 39.8635 241.909 39.8635C259.521 39.8635 273.798 54.4572 273.798 72.4584C273.798 90.4626 259.521 105.056 241.909 105.056Z" fill="black"/>
<path fill-rule="evenodd" clip-rule="evenodd" d="M478.812 109.19C479.252 114.192 483.256 120.56 490.193 120.56H494.252C495.826 120.56 497.114 119.271 497.114 117.697V28.4961H497.098C497.015 26.9933 495.772 25.7897 494.252 25.7897H481.675C480.154 25.7897 478.912 26.9933 478.826 28.4961H478.812V35.7442C471.105 26.2526 458.956 22.313 446.772 22.313C419.079 22.313 396.63 44.7631 396.63 72.4584C396.63 100.155 419.079 122.606 446.772 122.606V122.608C458.956 122.608 472.234 117.882 478.81 109.179L478.812 109.19ZM446.821 105.056C429.209 105.056 414.93 90.4626 414.93 72.4584C414.93 54.4572 429.209 39.8635 446.821 39.8635C464.434 39.8635 478.711 54.4572 478.711 72.4584C478.711 90.4626 464.434 105.056 446.821 105.056Z" fill="black"/>
<path fill-rule="evenodd" clip-rule="evenodd" d="M707.88 109.19C708.32 114.192 712.324 120.56 719.261 120.56H723.32C724.894 120.56 726.184 119.271 726.184 117.697V28.4961H726.166C726.084 26.9933 724.841 25.7897 723.32 25.7897H710.743C709.222 25.7897 707.98 26.9933 707.896 28.4961H707.88V35.7442C700.175 26.2526 688.026 22.313 675.842 22.313C648.147 22.313 625.698 44.7631 625.698 72.4584C625.698 100.155 648.147 122.606 675.842 122.606V122.608C688.026 122.608 701.302 117.882 707.879 109.179L707.88 109.19ZM675.891 105.056C658.278 105.056 643.998 90.4626 643.998 72.4584C643.998 54.4572 658.278 39.8635 675.891 39.8635C693.503 39.8635 707.78 54.4572 707.78 72.4584C707.78 90.4626 693.503 105.056 675.891 105.056Z" fill="black"/>
<path fill-rule="evenodd" clip-rule="evenodd" d="M609.801 112.257L609.795 66.0997H609.796C609.796 40.0808 593.381 22.528 567.207 22.528C554.712 22.528 544.469 29.7533 540.852 35.96C540.07 31.1068 537.493 26.0055 529.503 26.0055H525.431C523.856 26.0055 522.569 27.2951 522.569 28.8687V109.413V109.426V118.077H522.585C522.668 119.578 523.911 120.783 525.432 120.783H538.01C538.202 120.783 538.391 120.76 538.574 120.724C538.657 120.708 538.734 120.676 538.815 120.653C538.909 120.624 539.006 120.602 539.095 120.565C539.207 120.519 539.308 120.456 539.413 120.399C539.464 120.367 539.517 120.345 539.566 120.313C539.692 120.232 539.807 120.134 539.918 120.035C539.936 120.016 539.958 120.004 539.977 119.987C540.101 119.866 540.216 119.733 540.317 119.595L540.318 119.592C540.633 119.16 540.824 118.639 540.855 118.077H540.871V65.3841C540.871 51.4101 552.201 40.0808 566.175 40.0808C580.15 40.0808 591.479 51.4101 591.479 65.3841L591.49 109.429L591.494 109.413C591.494 109.452 591.5 109.493 591.5 109.534V118.077H591.516C591.599 119.578 592.842 120.783 594.363 120.783H606.941C607.134 120.783 607.322 120.76 607.504 120.724C607.579 120.711 607.647 120.681 607.72 120.66C607.823 120.631 607.929 120.605 608.028 120.565C608.13 120.523 608.224 120.463 608.322 120.408C608.381 120.375 608.443 120.351 608.5 120.313C608.616 120.236 608.723 120.144 608.827 120.053C608.854 120.029 608.883 120.01 608.908 119.985C609.028 119.87 609.134 119.746 609.231 119.616C609.238 119.606 609.246 119.598 609.253 119.589C609.563 119.16 609.753 118.643 609.785 118.085C609.785 118.081 609.787 118.077 609.787 118.077H609.804V112.259L609.801 112.257Z" fill="black"/>
<path fill-rule="evenodd" clip-rule="evenodd" d="M322.251 96.4142C330.647 102.231 339.812 105.056 348.619 105.056C357.01 105.056 365.684 100.706 365.684 93.1354C365.684 83.0271 346.782 81.4543 334.907 77.418C323.029 73.3817 312.799 65.0381 312.799 51.5262C312.799 30.8507 331.221 22.3114 348.415 22.3114C359.309 22.3114 370.55 25.9039 377.837 31.0501C380.347 32.9518 378.818 35.1351 378.818 35.1351L371.862 45.0706C371.08 46.1897 369.713 47.1565 367.751 45.9453C365.788 44.7348 358.905 39.8627 348.415 39.8627C337.925 39.8627 331.605 44.7074 331.605 50.7124C331.605 57.9133 339.819 60.1781 349.438 62.6325C366.202 67.1515 384.49 72.5832 384.49 93.1354C384.49 111.352 367.451 122.61 348.619 122.61C334.348 122.61 322.198 118.542 312.008 111.063C309.885 108.939 311.368 106.966 311.368 106.966L318.29 97.0811C319.698 95.2327 321.474 95.8775 322.251 96.4142Z" fill="black"/>
</svg>
