<svg width="815" height="211" viewBox="0 0 815 211" fill="none" xmlns="http://www.w3.org/2000/svg">
<path d="M280.433 1.50732H322.648C339.233 1.50732 355.819 9.04303 355.819 28.6359C355.819 40.693 348.28 48.9823 336.971 51.9966C350.542 53.5037 360.341 64.0537 360.341 77.618C360.341 100.979 339.988 108.515 319.633 108.515H281.186V1.50732H280.433ZM300.032 45.2145H317.371C330.187 45.2145 336.218 39.9395 336.218 31.6501C336.218 22.6073 330.187 18.0859 315.11 18.0859H299.279V45.2145H300.032ZM300.032 92.6895H317.371C327.172 92.6895 340.741 91.1823 340.741 76.8645C340.741 65.5609 333.202 61.793 318.125 61.793H300.032V92.6895Z" fill="black"/>
<path d="M370.142 1.50732H441.004V18.8395H388.988V45.2145H437.989V62.5466H388.988V91.9359H444.773V109.268H370.895V1.50732H370.142Z" fill="black"/>
<path d="M493.021 1.50732H509.605L555.589 109.268H533.728L523.928 84.4002H477.188L467.389 109.268H446.281L493.021 1.50732ZM517.144 67.8216L500.558 24.1145L483.974 67.8216H517.144Z" fill="black"/>
<path d="M557.098 91.9359L614.391 18.8395H557.851V1.50732H637.761V18.8395L580.467 91.9359H639.268V109.268H557.098V91.9359Z" fill="black"/>
<path d="M648.314 1.50732H719.177V18.8395H667.161V45.2145H716.16V62.5466H667.161V91.9359H722.192V109.268H648.314V1.50732Z" fill="black"/>
<path d="M732.745 1.50732H770.439C790.792 1.50732 810.393 8.28947 810.393 32.4037C810.393 48.2287 801.346 59.5323 785.515 61.793L814.162 109.268H790.793L765.915 64.0537H751.593V109.268H732.745V1.50732ZM767.424 47.4752C777.978 47.4752 790.793 46.7216 790.793 32.4037C790.793 19.593 778.731 18.0859 768.931 18.0859H752.346V47.4752H767.424Z" fill="black"/>
<path d="M375.419 143.179H382.958V171.061H418.388V143.179H425.927V209.492H418.388V178.597H382.958V209.492H375.419V143.179Z" fill="black"/>
<path d="M476.435 211C471.158 211 466.636 210.247 462.866 208.739C458.344 207.233 455.327 204.217 451.558 201.203C448.543 198.189 446.281 194.422 444.02 189.9C442.513 185.378 441.758 180.858 441.758 176.336C441.758 171.061 442.513 166.539 444.02 162.772C445.528 158.25 447.79 154.483 451.558 151.467C454.574 148.453 458.344 146.193 462.866 143.932C467.389 142.425 471.913 141.671 476.435 141.671C481.712 141.671 486.235 142.425 490.006 143.932C494.528 145.439 497.543 148.453 501.313 151.467C504.328 154.483 506.59 158.25 508.852 162.772C510.359 167.292 511.113 171.814 511.113 176.336C511.113 181.611 510.359 186.133 508.852 189.9C507.343 194.422 505.082 198.189 501.313 201.203C498.298 204.217 494.528 206.478 490.006 208.739C486.235 210.247 481.712 211 476.435 211ZM476.435 203.464C480.205 203.464 483.974 202.711 486.989 201.203C490.005 199.697 493.021 197.436 495.282 195.175C497.543 192.914 499.051 189.9 500.559 186.133C502.066 183.117 502.82 179.35 502.82 175.583C502.82 171.814 502.066 168.047 500.559 165.033C499.051 162.017 497.543 159.003 495.282 155.989C493.021 153.728 490.005 151.467 486.989 149.961C483.974 148.453 480.205 147.7 476.435 147.7C472.666 147.7 468.898 148.453 465.881 149.961C462.866 151.467 459.85 153.728 457.589 155.989C455.327 158.25 453.82 161.264 452.312 165.033C450.805 168.047 450.05 171.814 450.05 175.583C450.05 179.35 450.805 183.117 452.312 186.133C453.82 189.147 455.327 192.161 457.589 195.175C459.85 197.436 462.866 199.697 465.881 201.203C469.651 202.711 472.666 203.464 476.435 203.464Z" fill="black"/>
<path d="M526.944 143.179H538.252L560.868 195.175L583.483 143.179H595.545V209.492H588.006V153.728L564.637 209.492H560.113L535.237 153.728V209.492H527.698V143.179H526.944Z" fill="black"/>
<path d="M615.145 143.179H656.607V150.714H622.683V171.814H654.345V179.35H622.683V202.711H658.114V210.247H615.145V143.179Z" fill="black"/>
<path d="M705.608 154.483C704.099 152.222 702.591 150.714 700.331 149.961C698.069 149.208 695.807 148.453 693.545 148.453C692.037 148.453 689.777 148.453 688.268 149.208C686.76 149.961 685.253 149.961 683.745 151.469C682.238 152.222 681.483 153.728 680.73 155.236C679.976 156.744 679.223 158.25 679.223 160.511C679.223 162.019 679.223 163.525 679.976 164.278C680.73 165.786 681.483 166.539 682.238 167.294C682.991 168.047 684.5 168.8 686.76 169.553C688.268 170.308 690.53 171.061 693.545 171.814C695.807 172.569 698.822 173.322 701.084 174.075C703.346 174.828 705.608 176.336 707.114 177.844C708.623 179.35 710.13 180.858 711.638 183.119C712.391 185.378 713.145 187.639 713.145 191.408C713.145 194.422 712.391 197.436 710.885 199.697C709.376 201.958 707.868 204.219 705.608 205.725C703.346 207.233 701.084 208.739 698.069 209.494C695.807 210.247 693.545 211 690.53 211C688.268 211 686.76 211 684.5 210.247C682.238 210.247 680.73 209.494 679.223 208.739C677.715 207.986 675.453 207.233 673.946 205.725C672.438 204.219 670.929 203.464 670.176 201.203L676.961 195.928C678.468 198.189 680.73 200.45 682.991 201.203C685.253 202.711 688.268 202.711 691.284 202.711C692.792 202.711 694.299 202.711 696.561 201.958L701.084 199.697C702.591 198.944 703.346 197.436 704.099 195.928C704.853 194.422 705.608 192.914 705.608 190.653C705.608 188.392 705.608 186.886 704.853 185.378C704.099 183.872 703.346 183.119 701.838 182.364C700.331 181.611 698.822 180.858 696.561 180.103C694.299 179.35 692.037 178.597 689.022 177.844C686.76 177.089 684.5 176.336 682.238 175.583C679.976 174.828 678.468 173.322 676.961 171.814C675.453 170.308 674.699 168.8 673.191 166.539C671.684 165.786 670.929 163.525 670.929 160.511C670.929 157.497 671.684 154.483 672.438 152.222C673.946 149.961 675.453 147.7 677.714 146.193C679.976 144.686 682.238 143.179 685.253 142.425C688.268 141.672 690.53 140.918 693.545 140.918C697.314 140.918 700.331 141.672 704.099 142.425C707.114 143.932 710.13 145.439 712.391 148.453L705.608 154.483Z" fill="black"/>
<path d="M68.6003 136.397C131.17 67.068 213.341 67.8216 245.756 162.019C245.756 163.525 239.726 166.539 236.71 167.294C150.017 192.161 96.4928 158.25 83.6773 152.975C80.6618 151.469 59.5539 168.8 49.7538 174.828C40.7076 180.103 23.369 173.322 15.8305 169.553C10.5534 166.539 27.8921 159.758 27.8921 159.758C39.1999 154.483 34.6768 170.308 47.4924 164.278L48.2461 163.525C49 163.525 49 162.772 49.7538 162.772C140.216 88.9216 194.494 140.918 196.001 144.686C132.678 120.572 98.0005 144.686 98.0005 144.686C137.955 158.25 174.14 168.047 238.971 159.003C178.664 76.1109 123.632 109.268 80.6618 136.397C77.6465 137.904 69.354 143.932 67.8464 143.179C66.3387 142.425 67.0925 138.657 68.6003 136.397Z" fill="black"/>
<path d="M235.956 31.6501C234.449 30.1429 229.172 27.8823 226.156 27.8823C141.724 12.8108 112.324 78.3715 111.57 96.4573C117.601 92.6893 123.632 90.4287 130.417 88.1679V87.4143C129.663 79.8787 168.11 24.8679 229.172 35.4179C220.125 48.2287 182.432 76.1107 171.878 83.6465C177.909 84.4001 183.941 85.9073 189.218 88.1679C205.802 80.6323 237.464 36.9251 235.956 31.6501Z" fill="black"/>
<path d="M187.709 51.9966C181.679 52.7502 147 73.0966 143.985 81.3859V82.8931C149.262 82.1395 154.539 81.3859 159.816 81.3859C166.601 75.3574 189.216 51.9966 187.709 51.9966Z" fill="black"/>
<path d="M85.9384 160.511C81.4153 168.047 75.3845 170.308 72.369 173.322C70.1075 176.336 75.3845 176.336 84.4307 175.583C91.2154 175.583 91.9693 176.336 94.2308 175.583C96.4924 174.828 94.2308 170.308 96.4924 166.539C96.4924 165.786 97.2463 165.786 97.2463 165.033C92.7232 162.772 88.9538 161.264 86.6923 159.758C86.6923 160.511 85.9384 160.511 85.9384 160.511Z" fill="black"/>
</svg>
