<svg width="1094" height="473" viewBox="0 0 1094 473" fill="none" xmlns="http://www.w3.org/2000/svg">
<mask id="path-1-inside-1_28:58" fill="white">
<path fill-rule="evenodd" clip-rule="evenodd" d="M13.0733 61.8274C132.907 38.8274 414.073 -4.17242 516.573 0.327256C623.478 -3.94833 768.458 53.0282 835.674 79.4437C839.193 80.8263 842.498 82.1252 845.573 83.3272C899.073 83.3272 1010.07 112.328 1092.07 176.327C1095.91 177.827 1093.07 191.328 1068.57 216.327L1087.07 242.827C1088.74 245.494 1084.67 250.727 1055.07 250.327C1035.26 250.06 1002.83 250.524 975.862 250.91H975.86L975.856 250.91C962.541 251.101 950.556 251.272 942.073 251.327C955.073 205.161 955.073 110.327 853.073 110.327C815.907 112.827 754.073 140.328 779.573 250.327L288.073 242.827C307.407 191.827 313.073 90.3279 195.573 88.8272C161 88.8272 89 125.5 116.073 225.327C115.486 225.35 114.888 225.376 114.28 225.402C105.135 225.796 93.6064 226.293 79.0733 218.263C60.0733 218.263 37.5376 207.737 26.0733 191.327L10.0733 187.827C9.40667 182.494 9.17334 170.827 13.5733 166.827L0.0733134 151.327C-0.26002 147.327 0.373313 138.727 5.57331 136.327L25.0733 135.327C24.9066 134.494 25.3733 132.327 28.5733 130.327V108.827L26.0733 101.327L28.5733 97.8272L10.0733 62.8274L13.0733 61.8274ZM422.907 76.104H425.746L438.939 121.862L419.734 191H386.334L422.907 76.104ZM460.482 170.626H432.593L439.607 144.908H452.967L433.261 76.104H463.822L500.395 191H466.327L460.482 170.626ZM555.759 76.104H589.159V191H555.759V76.104ZM596.173 76.104H638.591V101.655H596.173V76.104ZM596.173 120.192H630.742V145.743H596.173V120.192ZM596.173 165.449H638.591V191H596.173V165.449Z"/>
<path fill-rule="evenodd" clip-rule="evenodd" d="M204.5 272C251.168 272 289 234.168 289 187.5C289 140.832 251.168 103 204.5 103C157.832 103 120 140.832 120 187.5C120 234.168 157.832 272 204.5 272ZM267 189C267 223.242 239.242 251 205 251C170.758 251 143 223.242 143 189C143 154.758 170.758 127 205 127C239.242 127 267 154.758 267 189Z"/>
<path fill-rule="evenodd" clip-rule="evenodd" d="M939 200.5C939 243.854 903.854 279 860.5 279C817.146 279 782 243.854 782 200.5C782 157.146 817.146 122 860.5 122C903.854 122 939 157.146 939 200.5ZM861 263C895.242 263 923 235.242 923 201C923 166.758 895.242 139 861 139C826.758 139 799 166.758 799 201C799 235.242 826.758 263 861 263Z"/>
<path d="M40.936 318.664H38.012L0.344 437H34.744L54.524 365.792L40.936 318.664Z"/>
<path d="M47.988 416.016H76.712L82.732 437H117.82L80.152 318.664H48.676L68.972 389.528H55.212L47.988 416.016Z"/>
<path d="M142.85 428.744C146.405 435.051 153.342 438.204 163.662 438.204C170.886 438.204 176.734 436.541 181.206 433.216V411.716H179.486C176.849 411.716 175.014 411.601 173.982 411.372C172.95 411.028 172.205 410.225 171.746 408.964C171.287 407.703 170.943 405.639 170.714 402.772C170.599 400.823 170.542 396.809 170.542 390.732V349.28H138.722V404.148C138.722 409.881 139.009 414.755 139.582 418.768C140.155 422.667 141.245 425.992 142.85 428.744Z"/>
<path d="M220.25 349.28H188.43V437H220.25V349.28Z"/>
<path d="M260.487 349.28H244.319V373.532H311.571V349.28H292.307V323.824H260.487V349.28Z"/>
<path d="M292.307 380.412H260.487V437H292.307V380.412Z"/>
<path d="M383.618 381.616C383.732 383.565 383.79 387.464 383.79 393.312V438.032C391.472 437.573 397.492 436.484 401.85 434.764C406.207 432.929 409.475 430.235 411.654 426.68C413.603 423.469 414.807 419.399 415.266 414.468C415.839 409.423 416.126 402.371 416.126 393.312C416.126 383.565 415.724 376.055 414.922 370.78C414.234 365.391 412.628 361.091 410.106 357.88C407.354 354.325 403.168 351.803 397.55 350.312C391.931 348.707 384.134 347.904 374.158 347.904H371.75V372.156H374.158C376.566 372.156 378.458 372.328 379.834 372.672C381.095 373.016 382.012 373.933 382.586 375.424C383.159 376.8 383.503 378.864 383.618 381.616Z"/>
<path d="M350.766 436.14C356.384 437.631 364.182 438.376 374.158 438.376H376.566V414.124H374.158C371.635 414.124 369.8 413.952 368.654 413.608C367.278 413.264 366.303 412.404 365.73 411.028C365.156 409.652 364.812 407.588 364.698 404.836C364.583 403.001 364.526 399.16 364.526 393.312V348.248C356.843 348.707 350.823 349.853 346.466 351.688C342.108 353.408 338.898 356.103 336.834 359.772C334.884 363.097 333.623 367.283 333.05 372.328C332.476 377.373 332.19 384.368 332.19 393.312C332.19 403.059 332.534 410.569 333.222 415.844C334.024 421.119 335.687 425.361 338.21 428.572C340.962 432.127 345.147 434.649 350.766 436.14Z"/>
<path d="M536.015 318.664H501.615V437H536.015V318.664Z"/>
<path d="M586.927 318.664H543.239V344.98H586.927V318.664Z"/>
<path d="M578.843 364.072H543.239V390.388H578.843V364.072Z"/>
<path d="M586.927 410.684H543.239V437H586.927V410.684Z"/>
<path d="M666.943 383.508C667.058 385.457 667.115 389.471 667.115 395.548V437H698.935V382.132C698.935 376.399 698.649 371.583 698.075 367.684C697.502 363.671 696.413 360.288 694.807 357.536C691.253 351.229 684.315 348.076 673.995 348.076C666.771 348.076 660.923 349.739 656.451 353.064V374.564H658.171C660.694 374.564 662.529 374.736 663.675 375.08C664.822 375.309 665.625 375.997 666.083 377.144C666.427 378.176 666.714 380.297 666.943 383.508Z"/>
<path d="M649.227 349.28H617.407V437H649.227V349.28Z"/>
<path d="M741.229 434.248C744.439 435.739 748.338 436.484 752.925 436.484C757.053 436.484 760.435 436.197 763.073 435.624C765.71 434.936 768.175 433.675 770.469 431.84V409.996H768.577C766.742 409.996 765.022 409.881 763.417 409.652C762.155 409.423 761.238 408.792 760.665 407.76C760.091 406.613 759.747 404.836 759.633 402.428C759.518 400.823 759.461 397.44 759.461 392.28C759.461 387.12 759.518 383.737 759.633 382.132C759.747 379.839 760.091 378.061 760.665 376.8C761.238 375.883 762.041 375.309 763.073 375.08C764.219 374.736 766.054 374.564 768.577 374.564H770.469V352.892C768.175 351.057 765.653 349.796 762.901 349.108C760.149 348.42 756.823 348.076 752.925 348.076C748.338 348.076 744.439 348.821 741.229 350.312C738.018 351.803 735.381 354.153 733.317 357.364C729.189 363.785 727.125 375.309 727.125 391.936C727.125 408.448 729.189 420.029 733.317 426.68C735.381 430.12 738.018 432.643 741.229 434.248Z"/>
<path d="M743.809 471.4C751.835 472.088 758.715 472.432 764.449 472.432C774.998 472.432 783.311 471.515 789.389 469.68C795.581 467.845 800.167 465.036 803.149 461.252C805.786 457.812 807.506 453.512 808.309 448.352C809.111 443.307 809.513 436.312 809.513 427.368V349.28H777.693V433.044C777.693 436.14 777.578 439.064 777.349 441.816C777.005 443.88 776.145 445.313 774.769 446.116C773.507 447.033 771.443 447.607 768.577 447.836C764.678 448.065 760.665 448.18 756.537 448.18H733.489V470.368L743.809 471.4Z"/>
<path d="M872.142 309.204H840.322V333.972H872.142V309.204Z"/>
<path d="M872.142 349.28H840.322V437H872.142V349.28Z"/>
<path d="M952.437 383.508C952.551 385.457 952.609 389.471 952.609 395.548V437H984.429V382.132C984.429 376.399 984.142 371.583 983.569 367.684C982.995 363.671 981.906 360.288 980.301 357.536C976.746 351.229 969.809 348.076 959.489 348.076C952.265 348.076 946.417 349.739 941.945 353.064V374.564H943.665C946.187 374.564 948.022 374.736 949.169 375.08C950.315 375.309 951.118 375.997 951.577 377.144C951.921 378.176 952.207 380.297 952.437 383.508Z"/>
<path d="M934.721 349.28H902.901V437H934.721V349.28Z"/>
<path d="M1063.53 384.54H1051.49V400.192H1093.46V393.312C1093.46 383.221 1093.17 375.653 1092.6 370.608C1092.14 365.563 1090.76 361.435 1088.47 358.224C1085.95 354.555 1081.99 351.917 1076.6 350.312C1071.33 348.707 1063.76 347.904 1053.9 347.904H1051.49V369.748H1053.9C1056.08 369.748 1057.74 369.92 1058.89 370.264C1060.03 370.493 1060.95 371.124 1061.64 372.156C1062.9 373.991 1063.53 378.119 1063.53 384.54Z"/>
<path d="M1032.4 435.796C1038.48 437.516 1046.79 438.376 1057.34 438.376C1062.61 438.376 1067.2 438.204 1071.1 437.86C1079.12 437.401 1085.43 436.484 1090.02 435.108V412.92L1081.25 413.608C1077.92 413.952 1072.59 414.124 1065.25 414.124C1061.12 414.124 1057.22 414.009 1053.55 413.78C1050.69 413.665 1048.57 413.149 1047.19 412.232C1045.93 411.429 1045.13 410.225 1044.78 408.62C1044.44 406.9 1044.27 404.091 1044.27 400.192V348.248C1036.81 348.821 1030.91 350.197 1026.55 352.376C1022.31 354.44 1019.15 357.364 1017.09 361.148C1015.26 364.588 1014.05 368.773 1013.48 373.704C1012.9 378.52 1012.62 385.056 1012.62 393.312C1012.62 402.256 1013.02 409.308 1013.82 414.468C1014.62 419.513 1016.34 423.756 1018.98 427.196C1021.96 431.095 1026.44 433.961 1032.4 435.796Z"/>
</mask>
<path fill-rule="evenodd" clip-rule="evenodd" d="M13.0733 61.8274C132.907 38.8274 414.073 -4.17242 516.573 0.327256C623.478 -3.94833 768.458 53.0282 835.674 79.4437C839.193 80.8263 842.498 82.1252 845.573 83.3272C899.073 83.3272 1010.07 112.328 1092.07 176.327C1095.91 177.827 1093.07 191.328 1068.57 216.327L1087.07 242.827C1088.74 245.494 1084.67 250.727 1055.07 250.327C1035.26 250.06 1002.83 250.524 975.862 250.91H975.86L975.856 250.91C962.541 251.101 950.556 251.272 942.073 251.327C955.073 205.161 955.073 110.327 853.073 110.327C815.907 112.827 754.073 140.328 779.573 250.327L288.073 242.827C307.407 191.827 313.073 90.3279 195.573 88.8272C161 88.8272 89 125.5 116.073 225.327C115.486 225.35 114.888 225.376 114.28 225.402C105.135 225.796 93.6064 226.293 79.0733 218.263C60.0733 218.263 37.5376 207.737 26.0733 191.327L10.0733 187.827C9.40667 182.494 9.17334 170.827 13.5733 166.827L0.0733134 151.327C-0.26002 147.327 0.373313 138.727 5.57331 136.327L25.0733 135.327C24.9066 134.494 25.3733 132.327 28.5733 130.327V108.827L26.0733 101.327L28.5733 97.8272L10.0733 62.8274L13.0733 61.8274ZM422.907 76.104H425.746L438.939 121.862L419.734 191H386.334L422.907 76.104ZM460.482 170.626H432.593L439.607 144.908H452.967L433.261 76.104H463.822L500.395 191H466.327L460.482 170.626ZM555.759 76.104H589.159V191H555.759V76.104ZM596.173 76.104H638.591V101.655H596.173V76.104ZM596.173 120.192H630.742V145.743H596.173V120.192ZM596.173 165.449H638.591V191H596.173V165.449Z" fill="black"/>
<path fill-rule="evenodd" clip-rule="evenodd" d="M204.5 272C251.168 272 289 234.168 289 187.5C289 140.832 251.168 103 204.5 103C157.832 103 120 140.832 120 187.5C120 234.168 157.832 272 204.5 272ZM267 189C267 223.242 239.242 251 205 251C170.758 251 143 223.242 143 189C143 154.758 170.758 127 205 127C239.242 127 267 154.758 267 189Z" fill="black"/>
<path fill-rule="evenodd" clip-rule="evenodd" d="M939 200.5C939 243.854 903.854 279 860.5 279C817.146 279 782 243.854 782 200.5C782 157.146 817.146 122 860.5 122C903.854 122 939 157.146 939 200.5ZM861 263C895.242 263 923 235.242 923 201C923 166.758 895.242 139 861 139C826.758 139 799 166.758 799 201C799 235.242 826.758 263 861 263Z" fill="black"/>
<path d="M40.936 318.664H38.012L0.344 437H34.744L54.524 365.792L40.936 318.664Z" fill="black"/>
<path d="M47.988 416.016H76.712L82.732 437H117.82L80.152 318.664H48.676L68.972 389.528H55.212L47.988 416.016Z" fill="black"/>
<path d="M142.85 428.744C146.405 435.051 153.342 438.204 163.662 438.204C170.886 438.204 176.734 436.541 181.206 433.216V411.716H179.486C176.849 411.716 175.014 411.601 173.982 411.372C172.95 411.028 172.205 410.225 171.746 408.964C171.287 407.703 170.943 405.639 170.714 402.772C170.599 400.823 170.542 396.809 170.542 390.732V349.28H138.722V404.148C138.722 409.881 139.009 414.755 139.582 418.768C140.155 422.667 141.245 425.992 142.85 428.744Z" fill="black"/>
<path d="M220.25 349.28H188.43V437H220.25V349.28Z" fill="black"/>
<path d="M260.487 349.28H244.319V373.532H311.571V349.28H292.307V323.824H260.487V349.28Z" fill="black"/>
<path d="M292.307 380.412H260.487V437H292.307V380.412Z" fill="black"/>
<path d="M383.618 381.616C383.732 383.565 383.79 387.464 383.79 393.312V438.032C391.472 437.573 397.492 436.484 401.85 434.764C406.207 432.929 409.475 430.235 411.654 426.68C413.603 423.469 414.807 419.399 415.266 414.468C415.839 409.423 416.126 402.371 416.126 393.312C416.126 383.565 415.724 376.055 414.922 370.78C414.234 365.391 412.628 361.091 410.106 357.88C407.354 354.325 403.168 351.803 397.55 350.312C391.931 348.707 384.134 347.904 374.158 347.904H371.75V372.156H374.158C376.566 372.156 378.458 372.328 379.834 372.672C381.095 373.016 382.012 373.933 382.586 375.424C383.159 376.8 383.503 378.864 383.618 381.616Z" fill="black"/>
<path d="M350.766 436.14C356.384 437.631 364.182 438.376 374.158 438.376H376.566V414.124H374.158C371.635 414.124 369.8 413.952 368.654 413.608C367.278 413.264 366.303 412.404 365.73 411.028C365.156 409.652 364.812 407.588 364.698 404.836C364.583 403.001 364.526 399.16 364.526 393.312V348.248C356.843 348.707 350.823 349.853 346.466 351.688C342.108 353.408 338.898 356.103 336.834 359.772C334.884 363.097 333.623 367.283 333.05 372.328C332.476 377.373 332.19 384.368 332.19 393.312C332.19 403.059 332.534 410.569 333.222 415.844C334.024 421.119 335.687 425.361 338.21 428.572C340.962 432.127 345.147 434.649 350.766 436.14Z" fill="black"/>
<path d="M536.015 318.664H501.615V437H536.015V318.664Z" fill="black"/>
<path d="M586.927 318.664H543.239V344.98H586.927V318.664Z" fill="black"/>
<path d="M578.843 364.072H543.239V390.388H578.843V364.072Z" fill="black"/>
<path d="M586.927 410.684H543.239V437H586.927V410.684Z" fill="black"/>
<path d="M666.943 383.508C667.058 385.457 667.115 389.471 667.115 395.548V437H698.935V382.132C698.935 376.399 698.649 371.583 698.075 367.684C697.502 363.671 696.413 360.288 694.807 357.536C691.253 351.229 684.315 348.076 673.995 348.076C666.771 348.076 660.923 349.739 656.451 353.064V374.564H658.171C660.694 374.564 662.529 374.736 663.675 375.08C664.822 375.309 665.625 375.997 666.083 377.144C666.427 378.176 666.714 380.297 666.943 383.508Z" fill="black"/>
<path d="M649.227 349.28H617.407V437H649.227V349.28Z" fill="black"/>
<path d="M741.229 434.248C744.439 435.739 748.338 436.484 752.925 436.484C757.053 436.484 760.435 436.197 763.073 435.624C765.71 434.936 768.175 433.675 770.469 431.84V409.996H768.577C766.742 409.996 765.022 409.881 763.417 409.652C762.155 409.423 761.238 408.792 760.665 407.76C760.091 406.613 759.747 404.836 759.633 402.428C759.518 400.823 759.461 397.44 759.461 392.28C759.461 387.12 759.518 383.737 759.633 382.132C759.747 379.839 760.091 378.061 760.665 376.8C761.238 375.883 762.041 375.309 763.073 375.08C764.219 374.736 766.054 374.564 768.577 374.564H770.469V352.892C768.175 351.057 765.653 349.796 762.901 349.108C760.149 348.42 756.823 348.076 752.925 348.076C748.338 348.076 744.439 348.821 741.229 350.312C738.018 351.803 735.381 354.153 733.317 357.364C729.189 363.785 727.125 375.309 727.125 391.936C727.125 408.448 729.189 420.029 733.317 426.68C735.381 430.12 738.018 432.643 741.229 434.248Z" fill="black"/>
<path d="M743.809 471.4C751.835 472.088 758.715 472.432 764.449 472.432C774.998 472.432 783.311 471.515 789.389 469.68C795.581 467.845 800.167 465.036 803.149 461.252C805.786 457.812 807.506 453.512 808.309 448.352C809.111 443.307 809.513 436.312 809.513 427.368V349.28H777.693V433.044C777.693 436.14 777.578 439.064 777.349 441.816C777.005 443.88 776.145 445.313 774.769 446.116C773.507 447.033 771.443 447.607 768.577 447.836C764.678 448.065 760.665 448.18 756.537 448.18H733.489V470.368L743.809 471.4Z" fill="black"/>
<path d="M872.142 309.204H840.322V333.972H872.142V309.204Z" fill="black"/>
<path d="M872.142 349.28H840.322V437H872.142V349.28Z" fill="black"/>
<path d="M952.437 383.508C952.551 385.457 952.609 389.471 952.609 395.548V437H984.429V382.132C984.429 376.399 984.142 371.583 983.569 367.684C982.995 363.671 981.906 360.288 980.301 357.536C976.746 351.229 969.809 348.076 959.489 348.076C952.265 348.076 946.417 349.739 941.945 353.064V374.564H943.665C946.187 374.564 948.022 374.736 949.169 375.08C950.315 375.309 951.118 375.997 951.577 377.144C951.921 378.176 952.207 380.297 952.437 383.508Z" fill="black"/>
<path d="M934.721 349.28H902.901V437H934.721V349.28Z" fill="black"/>
<path d="M1063.53 384.54H1051.49V400.192H1093.46V393.312C1093.46 383.221 1093.17 375.653 1092.6 370.608C1092.14 365.563 1090.76 361.435 1088.47 358.224C1085.95 354.555 1081.99 351.917 1076.6 350.312C1071.33 348.707 1063.76 347.904 1053.9 347.904H1051.49V369.748H1053.9C1056.08 369.748 1057.74 369.92 1058.89 370.264C1060.03 370.493 1060.95 371.124 1061.64 372.156C1062.9 373.991 1063.53 378.119 1063.53 384.54Z" fill="black"/>
<path d="M1032.4 435.796C1038.48 437.516 1046.79 438.376 1057.34 438.376C1062.61 438.376 1067.2 438.204 1071.1 437.86C1079.12 437.401 1085.43 436.484 1090.02 435.108V412.92L1081.25 413.608C1077.92 413.952 1072.59 414.124 1065.25 414.124C1061.12 414.124 1057.22 414.009 1053.55 413.78C1050.69 413.665 1048.57 413.149 1047.19 412.232C1045.93 411.429 1045.13 410.225 1044.78 408.62C1044.44 406.9 1044.27 404.091 1044.27 400.192V348.248C1036.81 348.821 1030.91 350.197 1026.55 352.376C1022.31 354.44 1019.15 357.364 1017.09 361.148C1015.26 364.588 1014.05 368.773 1013.48 373.704C1012.9 378.52 1012.62 385.056 1012.62 393.312C1012.62 402.256 1013.02 409.308 1013.82 414.468C1014.62 419.513 1016.34 423.756 1018.98 427.196C1021.96 431.095 1026.44 433.961 1032.4 435.796Z" fill="black"/>
<path fill-rule="evenodd" clip-rule="evenodd" d="M13.0733 61.8274C132.907 38.8274 414.073 -4.17242 516.573 0.327256C623.478 -3.94833 768.458 53.0282 835.674 79.4437C839.193 80.8263 842.498 82.1252 845.573 83.3272C899.073 83.3272 1010.07 112.328 1092.07 176.327C1095.91 177.827 1093.07 191.328 1068.57 216.327L1087.07 242.827C1088.74 245.494 1084.67 250.727 1055.07 250.327C1035.26 250.06 1002.83 250.524 975.862 250.91H975.86L975.856 250.91C962.541 251.101 950.556 251.272 942.073 251.327C955.073 205.161 955.073 110.327 853.073 110.327C815.907 112.827 754.073 140.328 779.573 250.327L288.073 242.827C307.407 191.827 313.073 90.3279 195.573 88.8272C161 88.8272 89 125.5 116.073 225.327C115.486 225.35 114.888 225.376 114.28 225.402C105.135 225.796 93.6064 226.293 79.0733 218.263C60.0733 218.263 37.5376 207.737 26.0733 191.327L10.0733 187.827C9.40667 182.494 9.17334 170.827 13.5733 166.827L0.0733134 151.327C-0.26002 147.327 0.373313 138.727 5.57331 136.327L25.0733 135.327C24.9066 134.494 25.3733 132.327 28.5733 130.327V108.827L26.0733 101.327L28.5733 97.8272L10.0733 62.8274L13.0733 61.8274ZM422.907 76.104H425.746L438.939 121.862L419.734 191H386.334L422.907 76.104ZM460.482 170.626H432.593L439.607 144.908H452.967L433.261 76.104H463.822L500.395 191H466.327L460.482 170.626ZM555.759 76.104H589.159V191H555.759V76.104ZM596.173 76.104H638.591V101.655H596.173V76.104ZM596.173 120.192H630.742V145.743H596.173V120.192ZM596.173 165.449H638.591V191H596.173V165.449Z" stroke="black" stroke-width="2" mask="url(#path-1-inside-1_28:58)"/>
<path fill-rule="evenodd" clip-rule="evenodd" d="M204.5 272C251.168 272 289 234.168 289 187.5C289 140.832 251.168 103 204.5 103C157.832 103 120 140.832 120 187.5C120 234.168 157.832 272 204.5 272ZM267 189C267 223.242 239.242 251 205 251C170.758 251 143 223.242 143 189C143 154.758 170.758 127 205 127C239.242 127 267 154.758 267 189Z" stroke="black" stroke-width="2" mask="url(#path-1-inside-1_28:58)"/>
<path fill-rule="evenodd" clip-rule="evenodd" d="M939 200.5C939 243.854 903.854 279 860.5 279C817.146 279 782 243.854 782 200.5C782 157.146 817.146 122 860.5 122C903.854 122 939 157.146 939 200.5ZM861 263C895.242 263 923 235.242 923 201C923 166.758 895.242 139 861 139C826.758 139 799 166.758 799 201C799 235.242 826.758 263 861 263Z" stroke="black" stroke-width="2" mask="url(#path-1-inside-1_28:58)"/>
<path d="M40.936 318.664H38.012L0.344 437H34.744L54.524 365.792L40.936 318.664Z" stroke="black" stroke-width="2" mask="url(#path-1-inside-1_28:58)"/>
<path d="M47.988 416.016H76.712L82.732 437H117.82L80.152 318.664H48.676L68.972 389.528H55.212L47.988 416.016Z" stroke="black" stroke-width="2" mask="url(#path-1-inside-1_28:58)"/>
<path d="M142.85 428.744C146.405 435.051 153.342 438.204 163.662 438.204C170.886 438.204 176.734 436.541 181.206 433.216V411.716H179.486C176.849 411.716 175.014 411.601 173.982 411.372C172.95 411.028 172.205 410.225 171.746 408.964C171.287 407.703 170.943 405.639 170.714 402.772C170.599 400.823 170.542 396.809 170.542 390.732V349.28H138.722V404.148C138.722 409.881 139.009 414.755 139.582 418.768C140.155 422.667 141.245 425.992 142.85 428.744Z" stroke="black" stroke-width="2" mask="url(#path-1-inside-1_28:58)"/>
<path d="M220.25 349.28H188.43V437H220.25V349.28Z" stroke="black" stroke-width="2" mask="url(#path-1-inside-1_28:58)"/>
<path d="M260.487 349.28H244.319V373.532H311.571V349.28H292.307V323.824H260.487V349.28Z" stroke="black" stroke-width="2" mask="url(#path-1-inside-1_28:58)"/>
<path d="M292.307 380.412H260.487V437H292.307V380.412Z" stroke="black" stroke-width="2" mask="url(#path-1-inside-1_28:58)"/>
<path d="M383.618 381.616C383.732 383.565 383.79 387.464 383.79 393.312V438.032C391.472 437.573 397.492 436.484 401.85 434.764C406.207 432.929 409.475 430.235 411.654 426.68C413.603 423.469 414.807 419.399 415.266 414.468C415.839 409.423 416.126 402.371 416.126 393.312C416.126 383.565 415.724 376.055 414.922 370.78C414.234 365.391 412.628 361.091 410.106 357.88C407.354 354.325 403.168 351.803 397.55 350.312C391.931 348.707 384.134 347.904 374.158 347.904H371.75V372.156H374.158C376.566 372.156 378.458 372.328 379.834 372.672C381.095 373.016 382.012 373.933 382.586 375.424C383.159 376.8 383.503 378.864 383.618 381.616Z" stroke="black" stroke-width="2" mask="url(#path-1-inside-1_28:58)"/>
<path d="M350.766 436.14C356.384 437.631 364.182 438.376 374.158 438.376H376.566V414.124H374.158C371.635 414.124 369.8 413.952 368.654 413.608C367.278 413.264 366.303 412.404 365.73 411.028C365.156 409.652 364.812 407.588 364.698 404.836C364.583 403.001 364.526 399.16 364.526 393.312V348.248C356.843 348.707 350.823 349.853 346.466 351.688C342.108 353.408 338.898 356.103 336.834 359.772C334.884 363.097 333.623 367.283 333.05 372.328C332.476 377.373 332.19 384.368 332.19 393.312C332.19 403.059 332.534 410.569 333.222 415.844C334.024 421.119 335.687 425.361 338.21 428.572C340.962 432.127 345.147 434.649 350.766 436.14Z" stroke="black" stroke-width="2" mask="url(#path-1-inside-1_28:58)"/>
<path d="M536.015 318.664H501.615V437H536.015V318.664Z" stroke="black" stroke-width="2" mask="url(#path-1-inside-1_28:58)"/>
<path d="M586.927 318.664H543.239V344.98H586.927V318.664Z" stroke="black" stroke-width="2" mask="url(#path-1-inside-1_28:58)"/>
<path d="M578.843 364.072H543.239V390.388H578.843V364.072Z" stroke="black" stroke-width="2" mask="url(#path-1-inside-1_28:58)"/>
<path d="M586.927 410.684H543.239V437H586.927V410.684Z" stroke="black" stroke-width="2" mask="url(#path-1-inside-1_28:58)"/>
<path d="M666.943 383.508C667.058 385.457 667.115 389.471 667.115 395.548V437H698.935V382.132C698.935 376.399 698.649 371.583 698.075 367.684C697.502 363.671 696.413 360.288 694.807 357.536C691.253 351.229 684.315 348.076 673.995 348.076C666.771 348.076 660.923 349.739 656.451 353.064V374.564H658.171C660.694 374.564 662.529 374.736 663.675 375.08C664.822 375.309 665.625 375.997 666.083 377.144C666.427 378.176 666.714 380.297 666.943 383.508Z" stroke="black" stroke-width="2" mask="url(#path-1-inside-1_28:58)"/>
<path d="M649.227 349.28H617.407V437H649.227V349.28Z" stroke="black" stroke-width="2" mask="url(#path-1-inside-1_28:58)"/>
<path d="M741.229 434.248C744.439 435.739 748.338 436.484 752.925 436.484C757.053 436.484 760.435 436.197 763.073 435.624C765.71 434.936 768.175 433.675 770.469 431.84V409.996H768.577C766.742 409.996 765.022 409.881 763.417 409.652C762.155 409.423 761.238 408.792 760.665 407.76C760.091 406.613 759.747 404.836 759.633 402.428C759.518 400.823 759.461 397.44 759.461 392.28C759.461 387.12 759.518 383.737 759.633 382.132C759.747 379.839 760.091 378.061 760.665 376.8C761.238 375.883 762.041 375.309 763.073 375.08C764.219 374.736 766.054 374.564 768.577 374.564H770.469V352.892C768.175 351.057 765.653 349.796 762.901 349.108C760.149 348.42 756.823 348.076 752.925 348.076C748.338 348.076 744.439 348.821 741.229 350.312C738.018 351.803 735.381 354.153 733.317 357.364C729.189 363.785 727.125 375.309 727.125 391.936C727.125 408.448 729.189 420.029 733.317 426.68C735.381 430.12 738.018 432.643 741.229 434.248Z" stroke="black" stroke-width="2" mask="url(#path-1-inside-1_28:58)"/>
<path d="M743.809 471.4C751.835 472.088 758.715 472.432 764.449 472.432C774.998 472.432 783.311 471.515 789.389 469.68C795.581 467.845 800.167 465.036 803.149 461.252C805.786 457.812 807.506 453.512 808.309 448.352C809.111 443.307 809.513 436.312 809.513 427.368V349.28H777.693V433.044C777.693 436.14 777.578 439.064 777.349 441.816C777.005 443.88 776.145 445.313 774.769 446.116C773.507 447.033 771.443 447.607 768.577 447.836C764.678 448.065 760.665 448.18 756.537 448.18H733.489V470.368L743.809 471.4Z" stroke="black" stroke-width="2" mask="url(#path-1-inside-1_28:58)"/>
<path d="M872.142 309.204H840.322V333.972H872.142V309.204Z" stroke="black" stroke-width="2" mask="url(#path-1-inside-1_28:58)"/>
<path d="M872.142 349.28H840.322V437H872.142V349.28Z" stroke="black" stroke-width="2" mask="url(#path-1-inside-1_28:58)"/>
<path d="M952.437 383.508C952.551 385.457 952.609 389.471 952.609 395.548V437H984.429V382.132C984.429 376.399 984.142 371.583 983.569 367.684C982.995 363.671 981.906 360.288 980.301 357.536C976.746 351.229 969.809 348.076 959.489 348.076C952.265 348.076 946.417 349.739 941.945 353.064V374.564H943.665C946.187 374.564 948.022 374.736 949.169 375.08C950.315 375.309 951.118 375.997 951.577 377.144C951.921 378.176 952.207 380.297 952.437 383.508Z" stroke="black" stroke-width="2" mask="url(#path-1-inside-1_28:58)"/>
<path d="M934.721 349.28H902.901V437H934.721V349.28Z" stroke="black" stroke-width="2" mask="url(#path-1-inside-1_28:58)"/>
<path d="M1063.53 384.54H1051.49V400.192H1093.46V393.312C1093.46 383.221 1093.17 375.653 1092.6 370.608C1092.14 365.563 1090.76 361.435 1088.47 358.224C1085.95 354.555 1081.99 351.917 1076.6 350.312C1071.33 348.707 1063.76 347.904 1053.9 347.904H1051.49V369.748H1053.9C1056.08 369.748 1057.74 369.92 1058.89 370.264C1060.03 370.493 1060.95 371.124 1061.64 372.156C1062.9 373.991 1063.53 378.119 1063.53 384.54Z" stroke="black" stroke-width="2" mask="url(#path-1-inside-1_28:58)"/>
<path d="M1032.4 435.796C1038.48 437.516 1046.79 438.376 1057.34 438.376C1062.61 438.376 1067.2 438.204 1071.1 437.86C1079.12 437.401 1085.43 436.484 1090.02 435.108V412.92L1081.25 413.608C1077.92 413.952 1072.59 414.124 1065.25 414.124C1061.12 414.124 1057.22 414.009 1053.55 413.78C1050.69 413.665 1048.57 413.149 1047.19 412.232C1045.93 411.429 1045.13 410.225 1044.78 408.62C1044.44 406.9 1044.27 404.091 1044.27 400.192V348.248C1036.81 348.821 1030.91 350.197 1026.55 352.376C1022.31 354.44 1019.15 357.364 1017.09 361.148C1015.26 364.588 1014.05 368.773 1013.48 373.704C1012.9 378.52 1012.62 385.056 1012.62 393.312C1012.62 402.256 1013.02 409.308 1013.82 414.468C1014.62 419.513 1016.34 423.756 1018.98 427.196C1021.96 431.095 1026.44 433.961 1032.4 435.796Z" stroke="black" stroke-width="2" mask="url(#path-1-inside-1_28:58)"/>
</svg>
