<svg width="746" height="144" viewBox="0 0 746 144" fill="none" xmlns="http://www.w3.org/2000/svg">
<path d="M100.006 118.886L59.1862 62.5218V103.518H75.515V144H0V103.518H15.3066V40.485H0V0H59.317L100.206 56.8775L141.183 0H200.496V40.485H185.187V103.518H200.496V144H124.985V103.518H141.309V62.5218L100.006 118.886Z" fill="black"/>
<path d="M503.705 1.98047C495.782 1.98047 488.96 6.82158 488.96 15.4645C488.96 24.4322 496.104 27.3766 499.907 28.75C501.741 29.4695 503.706 30.0571 505.549 30.7722C507.773 31.6979 512.815 33.7849 512.815 39.0189C512.815 43.9987 508.497 46.0867 503.575 46.0867C496.634 46.0867 492.367 42.0282 489.81 34.5084L487.451 34.7621L488.123 43.8659L491.976 46.6833C493.805 47.8591 497.674 50.3441 503.966 50.3441C513.727 50.3441 520.281 43.7414 520.281 35.7565C520.281 30.1934 517.265 26.1354 513.597 23.9726C511.702 22.8626 509.544 22.1346 506.92 21.2923C501.743 19.5856 496.301 17.7431 496.301 12.2502C496.301 8.58667 499.182 6.23158 504.095 6.23158C507.767 6.23158 510.913 7.56942 513.137 10.4476C514.971 12.8781 515.567 14.2793 516.352 17.2889L518.635 16.8365L517.134 3.092L514.323 5.11426C510.397 2.62666 506.789 1.98145 503.705 1.98145V1.98047ZM683.928 2.30266C669.068 2.23246 660.614 13.6236 660.614 26.2545C660.614 40.987 671.122 50.6723 684.552 50.6723C696.805 50.6723 707.681 42.2972 707.681 26.3229C707.681 12.3145 697.919 2.36829 683.928 2.30231V2.30266ZM593.192 2.89221V5.44231C597.645 5.70555 597.709 5.83471 601.048 10.8099L613.353 29.8602V37.9697C613.292 43.015 613.291 44.1919 612.243 45.2361C611.321 46.153 609.949 46.2877 606.347 46.6825V49.1709H629.127V46.6825C622.256 46.2877 622.189 45.6364 622.189 37.2569V27.6255L629.387 15.5879C634.691 6.94947 636.061 5.57818 640.712 5.44234V2.89224H622.649V5.44234C625.856 5.63977 627.749 5.7064 627.749 7.93075C627.749 8.98369 627.103 10.3569 625.918 12.6473L619.379 24.15L612.304 12.5785C611.128 10.613 610.282 9.17228 610.282 7.93075C610.282 5.70639 612.437 5.57835 617.281 5.44234V2.89224H593.192V2.89221ZM444.038 2.94019V5.43547C447.833 5.75575 449.081 6.21806 449.406 8.76707C449.603 10.2719 449.666 12.2297 449.666 17.7884V34.5082C449.666 36.4079 449.663 38.5589 449.598 40.4584C449.532 45.4248 449.013 46.2187 444.038 46.6006V49.1713H463.335V46.6006C457.772 46.4821 457.766 45.053 457.7 34.4534L457.707 28.4485C462.095 28.5187 463.009 28.1562 465.755 33.9736L468.312 39.4097C471.98 47.1927 475.58 50.2066 484.285 50.2066C485.333 50.2066 486.307 50.1465 487.294 50.0764V48.5065C483.56 47.9932 481.996 46.7401 479.048 41.3086L470.863 27.0773C477.211 25.1074 479.959 19.3146 479.959 14.8613C479.959 8.45165 476.364 3.02264 464.974 3.02264L444.039 2.94038L444.038 2.94019ZM403.408 2.94704V5.43544C406.747 5.76887 408.185 5.96163 408.646 8.11579C408.97 9.55482 409.036 14.6588 409.036 16.4927V32.7394C409.036 33.981 408.972 39.547 408.906 40.6572C408.775 45.7026 408.186 46.1536 403.408 46.6144V49.1714H438.63C438.63 45.8371 439.215 40.3322 439.61 37.1955H437.382C435.807 45.4436 431.163 45.0379 424.481 45.0379C418.33 45.0379 417.091 43.4042 417.091 40.3902V27.4684H422.068C427.762 27.4684 429.396 27.9562 429.396 33.1374H431.624V17.8778H429.396C428.939 22.0018 428.087 23.3482 422.129 23.3482H417.091V7.06712H422.787C430.636 7.06712 433.451 7.66021 434.496 13.9429H436.593L436.326 2.94728H403.407L403.408 2.94704ZM547.29 2.94704L546.9 15.9102H549.326C549.717 7.66215 553.178 7.85554 558.416 7.85554H564.181V41.8981C564.181 45.5701 563.005 47.1449 558.745 47.2109V49.1715H577.864L577.857 47.2109C573.602 47.1451 572.428 45.5704 572.428 41.8981V7.85554H578.186C583.425 7.85554 586.893 7.66222 587.283 15.9102H589.71L589.312 2.94704H547.289H547.29ZM223.996 2.96076V5.44232C227.467 5.63974 228.905 6.2342 229.295 9.11676C229.427 10.2926 229.428 12.5073 229.494 17.487V27.9547C229.494 35.4219 229.561 42.3657 236.432 47.0121C240.753 49.8945 245.987 50.2751 248.545 50.2751C251.748 50.2751 263.865 49.6291 267.006 37.1954C267.791 33.8566 267.978 30.3782 268.11 26.8508C268.175 24.8897 268.702 12.0587 268.768 10.9401C269.031 6.36853 269.948 5.38086 274.266 5.44228V2.96073H256.655V5.44228C260.783 5.77572 262.938 5.90021 263.201 10.09C263.267 11.5992 263.27 17.0963 263.27 18.8028C263.27 24.1686 263.206 32.2816 261.899 36.5987C260.328 42.0302 256.695 45.4691 250.087 45.4691C248.056 45.4691 244.034 45.0263 241.669 41.5823C238.704 37.2435 238.598 32.4111 238.598 26.7821V15.9167C238.664 6.09792 238.658 5.90277 244.809 5.44193V2.96037H223.997L223.996 2.96076ZM277.76 2.96076V5.44232C280.84 5.70555 281.886 6.16868 284.444 8.52026C284.378 13.3024 284.179 40.7212 283.525 43.7976C283.003 46.4168 281.559 46.4862 277.76 46.6836V49.172H296.612V46.6836C289.543 45.9684 289.023 45.7052 289.023 38.2382V14.2727L307.278 36.7988C309.371 39.3522 311.472 41.9741 313.564 44.5931L317.684 49.762H320.44L321.098 14.0881C321.164 6.55953 321.617 5.50974 326.658 5.44376V2.9622H308.457V5.44376C315.793 5.70699 315.987 6.10129 316.053 13.4367V34.1187L303.159 18.1395C296.354 9.69837 295.5 8.45519 291.635 2.96231H277.76V2.96076ZM331.636 2.96076V5.44232C337.067 6.23203 337.068 6.48568 337.134 16.1157V34.8301V40.7256C337.068 45.5734 336.146 46.0904 331.636 46.6828V49.1712H350.823V46.6828C347.23 46.4196 345.918 45.7659 345.593 42.9536C345.461 41.576 345.394 36.4025 345.394 34.7617V16.1157C345.394 6.23133 345.392 5.973 350.824 5.44232V2.96076H331.636ZM355.224 2.96076V5.44232C359.871 6.17061 360.261 7.21534 363.403 15.9855L376.037 50.0898H378.525L392.599 16.4997C396.394 7.34324 396.986 6.10041 401.435 5.44232V2.96076H385.264V5.44232C388.142 5.50813 391.42 5.63646 391.42 8.97952C391.42 10.1553 390.634 12.2489 390.042 13.881L380.623 38.1687L372.568 14.676C371.327 10.811 370.992 9.69729 370.992 8.38987C370.992 5.70485 373.418 5.57818 377.147 5.44218V2.96062H355.225L355.224 2.96076ZM523.307 2.96076V5.44232C528.743 6.23203 528.748 6.48568 528.818 16.1157V34.8301V40.7256C528.748 45.5734 527.826 46.0904 523.307 46.6828V49.1712H542.494V46.6828C538.901 46.4196 537.589 45.7659 537.264 42.9536C537.132 41.576 537.065 36.4025 537.065 34.7617V16.1157C537.065 6.23133 537.063 5.973 542.495 5.44232V2.96076H523.307ZM709.938 3.28981V5.77136C713.277 6.09602 714.713 6.29756 715.169 8.45172C715.502 9.89513 715.566 14.9972 715.566 16.8357L715.559 33.0756C715.559 34.3172 715.492 39.8766 715.422 40.9864C715.299 46.0188 714.705 46.4828 709.931 46.9437V49.4938H729.071V46.9437C724.293 46.483 723.705 46.0188 723.573 40.9864L723.601 27.7972H728.715C733.879 27.7972 736.626 28.2913 736.955 33.4596H739.19V18.2069H736.955C736.692 23.1867 735.324 23.6774 729.695 23.6774H723.601L723.608 7.67745C725.249 7.47563 726.165 7.4101 729.113 7.4101C738.147 7.4101 741.057 7.36896 742.268 14.6081H744.564L743.838 3.29026H709.939L709.938 3.28981ZM683.992 6.55286C687.844 6.43441 690.779 8.77859 692.266 10.3712C695.662 13.9951 697.325 19.1065 697.51 25.0686C697.694 31.0838 697.022 35.6862 693.753 40.7053C690.897 45.0399 687.217 46.341 684.602 46.4158C681.991 46.4158 678.28 45.2378 675.293 40.9864C671.875 36.0726 671.063 31.5014 671.063 25.4733C671.063 19.5154 672.562 14.3363 675.848 10.6113C677.291 8.97921 680.14 6.55321 683.992 6.55321V6.55286ZM460.556 7.03301C469.063 7.03301 471.764 11.6716 471.483 17.0416C471.29 20.7403 467.313 24.8672 462.057 24.8496C460.75 24.8496 458.98 24.6448 457.738 24.3903V7.3006C458.655 7.10317 459.376 7.03325 460.556 7.03325V7.03301ZM642.993 68.4831C639.527 71.0672 637.249 72.2527 629.132 74.9202L630.215 76.6065L611.309 128.492C608.633 135.81 606.256 137.305 598.928 137.603V141.366H627.747V137.603C623.492 137.405 618.239 137.111 618.239 132.153C618.239 130.679 618.635 129.285 619.13 127.793L621.297 121.754H645.948L648.045 128.89C648.44 130.176 648.84 131.665 648.84 133.051C648.84 136.912 645.174 137.305 640.422 137.603V141.366H671.051H673.094H699.569V137.603C688.873 136.51 688.08 136.116 688.08 124.832V88.568L715.706 122.645C718.878 126.515 722.039 130.467 725.207 134.429L731.452 142.258H735.613L736.6 88.2939C736.697 76.9133 737.393 75.3156 745.018 75.2279V71.4576H717.488V75.2279C728.579 75.6227 728.876 76.2131 728.977 87.2999V118.587L709.467 94.4224C699.17 81.6509 697.881 79.7759 692.042 71.4576H671.051V75.2279C675.706 75.6227 677.288 76.3132 681.149 79.8756C681.048 87.1016 680.751 128.585 679.764 133.25C679.046 136.832 677.05 137.238 672.457 137.507C665.636 136.647 664.296 134.468 661.612 126.312L646.167 78.7784C644.584 73.8296 644.384 73.2378 642.994 68.482L642.993 68.4831ZM567.195 69.6691C548.207 69.6691 533.056 84.2226 533.056 106.596C533.056 124.909 544.554 143.14 568.614 143.14C582.338 143.14 590.092 138.282 595.528 134.921V129.67C595.708 116.403 595.707 114.62 602.033 114.225V110.462H573.872V114.225C581.629 115.024 582.832 115.215 583.148 124.117C583.253 127.197 582.968 128.878 581.722 130.76C581.362 131.155 577.347 136.601 569.595 136.601C555.959 136.601 548.035 122.842 548.035 106.802C548.035 86.6946 558.194 76.3992 570.404 76.3992C577.441 76.3992 581.9 79.3184 584.216 81.5955C589.472 86.8469 591.618 91.6469 593.039 95.8061L595.891 95.3125L595.356 73.4242L591.709 77.5851C586.006 74.1191 579.137 69.6672 567.195 69.6672V69.6691ZM387.79 69.7719C364.182 69.7719 352.611 88.3947 352.611 107.303C352.611 127.703 366.258 143.243 387.325 143.243C406.612 143.243 414.043 130.863 417.145 125.818L412.984 122.664C409.316 127.911 404.728 134.736 392.501 134.736C376.317 134.736 368.131 120.279 368.131 104.923C368.131 86.7994 378.107 76.5155 390.712 76.5155C398.047 76.5155 403.221 81.0618 405.389 83.3432C409.903 88.2921 411.689 91.5538 412.909 95.6206L416.014 95.0173L415.637 73.8281L410.839 78.1881C406.798 75.0292 400.208 69.7701 387.792 69.7701L387.79 69.7719ZM226.755 71.4583V75.2285C232.99 75.3163 234.378 75.8186 234.378 82.7417C234.378 85.2205 234.383 88.588 234.282 90.8652L233.295 120.171C233.19 124.032 232.896 129.878 232.699 131.756C232.3 136.512 230.119 137.305 224.473 137.604V141.367H248.74V137.604C241.312 137.011 240.521 135.722 240.521 128.891L241.042 87.78L263.492 142.256H269.634L294.087 88.4855V123.647C293.986 136.62 293.989 137.012 285.175 137.604V141.368H315.769V137.604C310.224 137.108 308.246 136.119 307.852 130.969C307.553 127.402 307.454 121.466 307.454 116.71V87.8976C307.357 77.0038 307.451 76.1116 315.769 75.6202V71.4593H294.484L270.525 124.531L248.732 71.4593H226.755V71.4583ZM322.623 71.4583V75.2285C330.84 76.4131 330.837 76.806 330.938 91.3587V119.684V128.582C330.837 135.918 329.458 136.713 322.623 137.604V141.367H351.647V137.604C346.203 137.209 344.219 136.211 343.723 131.955C343.526 129.88 343.428 122.053 343.428 119.575V91.3587C343.428 76.411 343.43 76.0182 351.648 75.2285V71.4583H322.623ZM422.309 71.4583V75.2285C427.754 75.7155 429.729 76.3111 430.124 80.4659C430.423 82.6464 430.426 87.2023 430.426 91.7563V121.069C430.426 123.539 430.426 126.014 430.33 128.493C430.33 135.219 430.228 136.91 422.309 137.604V141.367H452.232V137.604C443.22 136.616 443.023 136.617 442.923 122.056V109.237C448.964 108.934 453.674 108.743 459.711 108.743C465.454 108.743 470.063 109.04 475.608 109.237V122.056C475.608 127.11 475.607 129.782 475.409 131.756C474.808 136.617 472.93 136.801 465.901 137.604V141.367H496.215V137.604C491.064 137.108 488.985 136.42 488.489 132.743C488.19 130.677 488.091 121.861 488.091 119.088V89.5764C488.091 76.3134 488.089 76.2159 496.214 75.2285V71.4583H465.901V75.2285C475.408 76.1148 475.507 76.6061 475.608 89.3774V101.12C469.663 101.414 464.959 101.614 459.018 101.614C453.179 101.614 448.964 101.414 442.922 101.12V91.4612C442.922 87.2978 443.023 82.1485 443.519 79.8759C444.212 76.0151 446.388 75.8203 452.232 75.2282V71.4579H422.309V71.4583ZM502 71.4583V75.2285C510.226 76.4131 510.228 76.806 510.329 91.3587V119.684V128.582C510.228 135.918 508.84 136.713 502 137.604V141.367H531.059V137.604C525.619 137.209 523.644 136.211 523.148 131.955C522.946 129.88 522.84 122.053 522.84 119.575V91.3587C522.84 76.411 522.841 76.0182 531.059 75.2285V71.4583H502ZM634.159 85.2509L643.969 114.228H623.883L634.159 85.2509Z" fill="black"/>
</svg>
